<svg width="100" height="80" viewBox="0 0 100 80" fill="none" xmlns="http://www.w3.org/2000/svg">
<circle cx="52.2858" cy="40" r="40" fill="#28C76F" fill-opacity="0.17"/>
<circle cx="52.2851" cy="40.0001" r="25.5238" fill="#28C76F" fill-opacity="0.3"/>
<circle cx="52.2853" cy="40.0003" r="14.0952" fill="#28C76F" fill-opacity="0.38"/>
<circle cx="88.4416" cy="16.1451" r="6.91948" fill="#248B54"/>
<path d="M90.7474 17.1411C90.7474 17.5167 90.5888 17.8396 90.2718 18.1098C89.9547 18.3755 89.4977 18.5403 88.9006 18.6045V19.374H88.108V18.6251C87.7169 18.6068 87.3444 18.5472 86.9904 18.4464C86.6364 18.3457 86.351 18.222 86.1344 18.0754L86.5703 17.2373C86.7711 17.3655 87.0062 17.4731 87.2757 17.5602C87.5452 17.6472 87.8226 17.7022 88.108 17.7251V16.5777C87.7328 16.4998 87.4158 16.4128 87.1568 16.3166C86.8979 16.2204 86.6813 16.0807 86.5069 15.8975C86.3325 15.7097 86.2453 15.4624 86.2453 15.1555C86.2453 14.7754 86.4039 14.4502 86.7209 14.1799C87.0432 13.9051 87.5056 13.7379 88.108 13.6784V12.9158H88.9006V13.6646C89.5505 13.7104 90.0868 13.8501 90.5096 14.0837L90.1133 14.9288C89.717 14.7318 89.3127 14.6128 88.9006 14.5715V15.7395C89.2705 15.8128 89.5822 15.8975 89.8359 15.9937C90.0948 16.0853 90.3114 16.225 90.4858 16.4128C90.6602 16.596 90.7474 16.8388 90.7474 17.1411ZM87.5214 15.1006C87.5214 15.2151 87.5716 15.309 87.672 15.3822C87.7724 15.4555 87.9177 15.5174 88.108 15.5677V14.5922C87.9072 14.6334 87.7592 14.6998 87.6641 14.7914C87.569 14.8784 87.5214 14.9815 87.5214 15.1006ZM88.9006 17.6976C89.0908 17.6609 89.2335 17.6014 89.3286 17.5189C89.4237 17.4365 89.4713 17.338 89.4713 17.2235C89.4713 17.109 89.4211 17.0151 89.3207 16.9418C89.2255 16.8685 89.0855 16.8044 88.9006 16.7495V17.6976Z" fill="#28BF6C"/>
<circle cx="28.0802" cy="54.0806" r="6.08057" fill="#248B54"/>
<path d="M30.106 54.9559C30.106 55.286 29.9667 55.5698 29.6881 55.8072C29.4095 56.0407 29.0079 56.1856 28.4832 56.2419V56.9181H27.7866V56.26C27.443 56.2439 27.1157 56.1916 26.8046 56.1031C26.4934 56.0145 26.2427 55.9058 26.0523 55.777L26.4354 55.0405C26.6119 55.1532 26.8185 55.2478 27.0553 55.3242C27.2921 55.4007 27.5359 55.449 27.7866 55.4691V54.4609C27.457 54.3925 27.1784 54.316 26.9508 54.2315C26.7233 54.1469 26.5329 54.0242 26.3797 53.8632C26.2265 53.6981 26.1498 53.4808 26.1498 53.2111C26.1498 52.8771 26.2891 52.5913 26.5677 52.3538C26.851 52.1123 27.2573 51.9654 27.7866 51.9131V51.2429H28.4832V51.901C29.0543 51.9413 29.5256 52.064 29.8971 52.2693L29.5488 53.0119C29.2006 52.8388 28.8453 52.7342 28.4832 52.6979V53.7243C28.8082 53.7887 29.0822 53.8632 29.305 53.9477C29.5326 54.0282 29.723 54.151 29.8762 54.316C30.0294 54.477 30.106 54.6903 30.106 54.9559ZM27.2712 53.1628C27.2712 53.2635 27.3153 53.346 27.4036 53.4104C27.4918 53.4748 27.6195 53.5291 27.7866 53.5734V52.7161C27.6102 52.7523 27.4802 52.8106 27.3966 52.8911C27.313 52.9676 27.2712 53.0582 27.2712 53.1628ZM28.4832 55.445C28.6503 55.4128 28.7757 55.3605 28.8593 55.288C28.9429 55.2156 28.9846 55.129 28.9846 55.0284C28.9846 54.9278 28.9405 54.8453 28.8523 54.7809C28.7687 54.7165 28.6457 54.6601 28.4832 54.6118V55.445Z" fill="#28BF6C"/>
<circle cx="11.4996" cy="69.5" r="3.5" fill="#248B54"/>
<path d="M12.6657 70.0039C12.6657 70.1939 12.5855 70.3572 12.4251 70.4939C12.2648 70.6283 12.0336 70.7117 11.7316 70.7441V71.1334H11.3306V70.7546C11.1329 70.7453 10.9444 70.7152 10.7654 70.6642C10.5863 70.6132 10.442 70.5507 10.3324 70.4766L10.5529 70.0526C10.6544 70.1175 10.7734 70.1719 10.9097 70.2159C11.046 70.2599 11.1863 70.2877 11.3306 70.2993V69.719C11.1409 69.6796 10.9805 69.6356 10.8495 69.5869C10.7186 69.5383 10.609 69.4676 10.5208 69.3749C10.4326 69.2799 10.3885 69.1548 10.3885 68.9996C10.3885 68.8073 10.4687 68.6428 10.629 68.5061C10.7921 68.3671 11.026 68.2826 11.3306 68.2524V67.8667H11.7316V68.2455C12.0603 68.2687 12.3316 68.3393 12.5454 68.4575L12.345 68.8849C12.1445 68.7853 11.94 68.7251 11.7316 68.7042V69.295C11.9187 69.3321 12.0764 69.3749 12.2046 69.4236C12.3356 69.4699 12.4452 69.5406 12.5334 69.6356C12.6216 69.7282 12.6657 69.851 12.6657 70.0039ZM11.034 68.9718C11.034 69.0297 11.0594 69.0772 11.1101 69.1143C11.1609 69.1514 11.2344 69.1826 11.3306 69.2081V68.7146C11.2291 68.7355 11.1542 68.7691 11.1061 68.8154C11.058 68.8594 11.034 68.9116 11.034 68.9718ZM11.7316 70.2854C11.8278 70.2669 11.8999 70.2368 11.9481 70.1951C11.9962 70.1534 12.0202 70.1036 12.0202 70.0456C12.0202 69.9877 11.9948 69.9402 11.9441 69.9032C11.8959 69.8661 11.8251 69.8336 11.7316 69.8058V70.2854Z" fill="#28BF6C"/>
<circle cx="23.9996" cy="9" r="4" fill="#248B54"/>
<path d="M25.3326 9.57585C25.3326 9.79297 25.2409 9.97964 25.0576 10.1359C24.8744 10.2894 24.6101 10.3847 24.265 10.4218V10.8666H23.8068V10.4337C23.5807 10.4231 23.3654 10.3887 23.1607 10.3305C22.9561 10.2722 22.7911 10.2007 22.6659 10.116L22.9179 9.63146C23.034 9.70559 23.1699 9.76782 23.3257 9.81812C23.4815 9.86843 23.6418 9.9002 23.8068 9.91344V9.25018C23.5899 9.20517 23.4066 9.15486 23.257 9.09926C23.1073 9.04366 22.982 8.9629 22.8812 8.85699C22.7804 8.74843 22.73 8.60545 22.73 8.42805C22.73 8.20829 22.8217 8.0203 23.005 7.86408C23.1913 7.70522 23.4586 7.60857 23.8068 7.57415V7.1333H24.265V7.56621C24.6407 7.59269 24.9507 7.67344 25.1951 7.80848L24.966 8.29699C24.7369 8.18314 24.5032 8.11429 24.265 8.09046V8.76564C24.4788 8.80801 24.659 8.85699 24.8056 8.91259C24.9553 8.96555 25.0806 9.0463 25.1814 9.15486C25.2822 9.26077 25.3326 9.4011 25.3326 9.57585ZM23.4677 8.39628C23.4677 8.46247 23.4967 8.51675 23.5548 8.55912C23.6128 8.60148 23.6968 8.63722 23.8068 8.66635V8.10238C23.6907 8.12621 23.6052 8.1646 23.5502 8.21756C23.4952 8.26786 23.4677 8.32744 23.4677 8.39628ZM24.265 9.89756C24.3749 9.87637 24.4574 9.84195 24.5124 9.79429C24.5674 9.74663 24.5949 9.68971 24.5949 9.62351C24.5949 9.55732 24.5659 9.50304 24.5078 9.46068C24.4528 9.41831 24.3719 9.38124 24.265 9.34947V9.89756Z" fill="#28BF6C"/>
<circle cx="90.7481" cy="56.8937" r="9.22597" fill="#248B54"/>
<path d="M93.8241 58.2214C93.8241 58.7222 93.6127 59.1527 93.19 59.513C92.7673 59.8672 92.1579 60.0871 91.3617 60.1726V61.1986H90.3049V60.2001C89.7836 60.1756 89.2869 60.0962 88.8148 59.9619C88.3428 59.8275 87.9623 59.6626 87.6735 59.4672L88.2547 58.3496C88.5224 58.5206 88.836 58.6641 89.1953 58.7802C89.5546 58.8962 89.9245 58.9695 90.3049 59V57.4702C89.8047 57.3664 89.382 57.2504 89.0367 57.1221C88.6915 56.9939 88.4027 56.8076 88.1702 56.5633C87.9377 56.3129 87.8214 55.9832 87.8214 55.574C87.8214 55.0671 88.0328 54.6335 88.4555 54.2732C88.8853 53.9068 89.5017 53.6839 90.3049 53.6045V52.5876H91.3617V53.5861C92.2283 53.6472 92.9434 53.8335 93.5071 54.1449L92.9787 55.2717C92.4503 55.0091 91.9113 54.8503 91.3617 54.7953V56.3526C91.8549 56.4503 92.2706 56.5633 92.6088 56.6916C92.954 56.8137 93.2429 57 93.4754 57.2504C93.7079 57.4946 93.8241 57.8183 93.8241 58.2214ZM89.5229 55.5007C89.5229 55.6534 89.5898 55.7786 89.7237 55.8763C89.8575 55.974 90.0513 56.0564 90.3049 56.1236V54.8228C90.0372 54.8778 89.8399 54.9663 89.7131 55.0885C89.5863 55.2045 89.5229 55.3419 89.5229 55.5007ZM91.3617 58.9634C91.6154 58.9145 91.8056 58.8351 91.9324 58.7252C92.0592 58.6153 92.1226 58.484 92.1226 58.3313C92.1226 58.1786 92.0557 58.0534 91.9218 57.9557C91.795 57.858 91.6083 57.7725 91.3617 57.6992V58.9634Z" fill="#28BF6C"/>
<path d="M57.8922 36.4629L49.8783 44.4768L46.1071 40.7056L47.0471 39.7656L49.8783 42.5902L56.9522 35.5229L57.8922 36.4629Z" fill="#28C76F"/>
</svg>
