<svg width="100" height="80" viewBox="0 0 100 80" fill="none" xmlns="http://www.w3.org/2000/svg">
<circle opacity="0.1" cx="52.2856" cy="40" r="40" fill="#FC455B"/>
<circle opacity="0.1" cx="52.285" cy="40.0001" r="25.5238" fill="#FC455B"/>
<circle opacity="0.05" cx="52.2852" cy="40.0003" r="14.0952" fill="#FC455B"/>
<circle cx="88.4415" cy="16.1451" r="6.91948" fill="#512931"/>
<path d="M90.7473 17.1411C90.7473 17.5167 90.5887 17.8396 90.2717 18.1098C89.9547 18.3755 89.4976 18.5403 88.9005 18.6045V19.374H88.1079V18.6251C87.7169 18.6068 87.3443 18.5472 86.9903 18.4464C86.6363 18.3457 86.3509 18.222 86.1343 18.0754L86.5702 17.2373C86.771 17.3655 87.0061 17.4731 87.2756 17.5602C87.5451 17.6472 87.8225 17.7022 88.1079 17.7251V16.5777C87.7327 16.4998 87.4157 16.4128 87.1567 16.3166C86.8978 16.2204 86.6812 16.0807 86.5068 15.8975C86.3324 15.7097 86.2452 15.4624 86.2452 15.1555C86.2452 14.7754 86.4038 14.4502 86.7208 14.1799C87.0431 13.9051 87.5055 13.7379 88.1079 13.6784V12.9158H88.9005V13.6646C89.5504 13.7104 90.0868 13.8501 90.5095 14.0837L90.1132 14.9288C89.7169 14.7318 89.3126 14.6128 88.9005 14.5715V15.7395C89.2704 15.8128 89.5821 15.8975 89.8358 15.9937C90.0947 16.0853 90.3113 16.225 90.4857 16.4128C90.6601 16.596 90.7473 16.8388 90.7473 17.1411ZM87.5213 15.1006C87.5213 15.2151 87.5715 15.309 87.6719 15.3822C87.7723 15.4555 87.9176 15.5174 88.1079 15.5677V14.5922C87.9071 14.6334 87.7591 14.6998 87.664 14.7914C87.5689 14.8784 87.5213 14.9815 87.5213 15.1006ZM88.9005 17.6976C89.0907 17.6609 89.2334 17.6014 89.3285 17.5189C89.4236 17.4365 89.4712 17.338 89.4712 17.2235C89.4712 17.109 89.421 17.0151 89.3206 16.9418C89.2255 16.8685 89.0854 16.8044 88.9005 16.7495V17.6976Z" fill="#FC455B"/>
<circle cx="28.0801" cy="54.0806" r="6.08057" fill="#512931"/>
<path d="M30.106 54.9559C30.106 55.286 29.9667 55.5698 29.688 55.8072C29.4094 56.0407 29.0078 56.1856 28.4831 56.2419V56.9181H27.7866V56.26C27.443 56.2439 27.1156 56.1916 26.8045 56.1031C26.4934 56.0145 26.2426 55.9058 26.0522 55.777L26.4353 55.0405C26.6118 55.1532 26.8184 55.2478 27.0552 55.3242C27.292 55.4007 27.5358 55.449 27.7866 55.4691V54.4609C27.4569 54.3925 27.1783 54.316 26.9507 54.2315C26.7232 54.1469 26.5328 54.0242 26.3796 53.8632C26.2264 53.6981 26.1498 53.4808 26.1498 53.2111C26.1498 52.8771 26.2891 52.5913 26.5677 52.3538C26.8509 52.1123 27.2572 51.9654 27.7866 51.9131V51.2429H28.4831V51.901C29.0542 51.9413 29.5255 52.064 29.897 52.2693L29.5487 53.0119C29.2005 52.8388 28.8453 52.7342 28.4831 52.6979V53.7243C28.8081 53.7887 29.0821 53.8632 29.305 53.9477C29.5325 54.0282 29.7229 54.151 29.8761 54.316C30.0293 54.477 30.106 54.6903 30.106 54.9559ZM27.2711 53.1628C27.2711 53.2635 27.3153 53.346 27.4035 53.4104C27.4917 53.4748 27.6194 53.5291 27.7866 53.5734V52.7161C27.6101 52.7523 27.4801 52.8106 27.3965 52.8911C27.3129 52.9676 27.2711 53.0582 27.2711 53.1628ZM28.4831 55.445C28.6502 55.4128 28.7756 55.3605 28.8592 55.288C28.9428 55.2156 28.9846 55.129 28.9846 55.0284C28.9846 54.9278 28.9405 54.8453 28.8522 54.7809C28.7687 54.7165 28.6456 54.6601 28.4831 54.6118V55.445Z" fill="#FC455B"/>
<circle cx="11.4995" cy="69.5" r="3.5" fill="#512931"/>
<path d="M12.6659 70.0039C12.6659 70.1939 12.5857 70.3572 12.4253 70.4939C12.2649 70.6283 12.0337 70.7117 11.7317 70.7441V71.1334H11.3308V70.7546C11.133 70.7453 10.9446 70.7152 10.7655 70.6642C10.5864 70.6132 10.4421 70.5507 10.3325 70.4766L10.553 70.0526C10.6546 70.1175 10.7735 70.1719 10.9098 70.2159C11.0462 70.2599 11.1865 70.2877 11.3308 70.2993V69.719C11.141 69.6796 10.9807 69.6356 10.8497 69.5869C10.7187 69.5383 10.6092 69.4676 10.521 69.3749C10.4327 69.2799 10.3886 69.1548 10.3886 68.9996C10.3886 68.8073 10.4688 68.6428 10.6292 68.5061C10.7922 68.3671 11.0261 68.2826 11.3308 68.2524V67.8667H11.7317V68.2455C12.0605 68.2687 12.3318 68.3393 12.5456 68.4575L12.3451 68.8849C12.1447 68.7853 11.9402 68.7251 11.7317 68.7042V69.295C11.9188 69.3321 12.0765 69.3749 12.2048 69.4236C12.3358 69.4699 12.4453 69.5406 12.5336 69.6356C12.6218 69.7282 12.6659 69.851 12.6659 70.0039ZM11.0341 68.9718C11.0341 69.0297 11.0595 69.0772 11.1103 69.1143C11.1611 69.1514 11.2346 69.1826 11.3308 69.2081V68.7146C11.2292 68.7355 11.1544 68.7691 11.1063 68.8154C11.0582 68.8594 11.0341 68.9116 11.0341 68.9718ZM11.7317 70.2854C11.8279 70.2669 11.9001 70.2368 11.9482 70.1951C11.9963 70.1534 12.0204 70.1036 12.0204 70.0456C12.0204 69.9877 11.995 69.9402 11.9442 69.9032C11.8961 69.8661 11.8253 69.8336 11.7317 69.8058V70.2854Z" fill="#FC455B"/>
<circle cx="23.9995" cy="9" r="4" fill="#512931"/>
<path d="M25.3327 9.57573C25.3327 9.79285 25.241 9.97951 25.0578 10.1357C24.8745 10.2893 24.6103 10.3846 24.2651 10.4217V10.8665H23.8069V10.4336C23.5809 10.423 23.3655 10.3886 23.1609 10.3303C22.9562 10.2721 22.7913 10.2006 22.666 10.1159L22.918 9.63133C23.0341 9.70547 23.17 9.76769 23.3258 9.818C23.4816 9.86831 23.642 9.90008 23.8069 9.91332V9.25006C23.59 9.20505 23.4068 9.15474 23.2571 9.09914C23.1074 9.04353 22.9822 8.96278 22.8814 8.85687C22.7806 8.74831 22.7302 8.60533 22.7302 8.42793C22.7302 8.20817 22.8218 8.02018 23.0051 7.86396C23.1914 7.70509 23.4587 7.60845 23.8069 7.57403V7.13318H24.2651V7.56609C24.6408 7.59256 24.9509 7.67332 25.1952 7.80836L24.9661 8.29687C24.737 8.18301 24.5034 8.11417 24.2651 8.09034V8.76552C24.4789 8.80788 24.6591 8.85687 24.8058 8.91247C24.9554 8.96542 25.0807 9.04618 25.1815 9.15474C25.2823 9.26065 25.3327 9.40098 25.3327 9.57573ZM23.4678 8.39616C23.4678 8.46235 23.4969 8.51663 23.5549 8.55899C23.6129 8.60136 23.6969 8.6371 23.8069 8.66623V8.10226C23.6908 8.12609 23.6053 8.16448 23.5503 8.21743C23.4953 8.26774 23.4678 8.32732 23.4678 8.39616ZM24.2651 9.89743C24.3751 9.87625 24.4575 9.84183 24.5125 9.79417C24.5675 9.74651 24.595 9.68958 24.595 9.62339C24.595 9.5572 24.566 9.50292 24.5079 9.46055C24.453 9.41819 24.372 9.38112 24.2651 9.34935V9.89743Z" fill="#FC455B"/>
<circle cx="90.7479" cy="56.8937" r="9.22597" fill="#512931"/>
<path d="M93.824 58.2214C93.824 58.7222 93.6126 59.1527 93.1899 59.513C92.7672 59.8672 92.1577 60.0871 91.3616 60.1726V61.1986H90.3048V60.2001C89.7834 60.1756 89.2867 60.0962 88.8147 59.9619C88.3427 59.8275 87.9622 59.6626 87.6733 59.4672L88.2546 58.3496C88.5223 58.5206 88.8358 58.6641 89.1951 58.7802C89.5545 58.8962 89.9244 58.9695 90.3048 59V57.4702C89.8046 57.3664 89.3819 57.2504 89.0366 57.1221C88.6914 56.9939 88.4025 56.8076 88.17 56.5633C87.9375 56.3129 87.8213 55.9832 87.8213 55.574C87.8213 55.0671 88.0327 54.6335 88.4554 54.2732C88.8852 53.9068 89.5016 53.6839 90.3048 53.6045V52.5876H91.3616V53.5861C92.2282 53.6472 92.9433 53.8335 93.5069 54.1449L92.9785 55.2717C92.4501 55.0091 91.9112 54.8503 91.3616 54.7953V56.3526C91.8548 56.4503 92.2705 56.5633 92.6087 56.6916C92.9539 56.8137 93.2427 57 93.4752 57.2504C93.7077 57.4946 93.824 57.8183 93.824 58.2214ZM89.5228 55.5007C89.5228 55.6534 89.5897 55.7786 89.7236 55.8763C89.8574 55.974 90.0512 56.0564 90.3048 56.1236V54.8228C90.0371 54.8778 89.8398 54.9663 89.713 55.0885C89.5862 55.2045 89.5228 55.3419 89.5228 55.5007ZM91.3616 58.9634C91.6153 58.9145 91.8055 58.8351 91.9323 58.7252C92.0591 58.6153 92.1225 58.484 92.1225 58.3313C92.1225 58.1786 92.0556 58.0534 91.9217 57.9557C91.7949 57.858 91.6082 57.7725 91.3616 57.6992V58.9634Z" fill="#FC455B"/>
<path d="M46.9995 34L57.9995 45" stroke="#FC455B" stroke-linecap="round"/>
<path d="M46.9995 45L57.9995 34" stroke="#FC455B" stroke-linecap="round"/>
</svg>
