<svg width="96" height="80" viewBox="0 0 96 80" fill="none" xmlns="http://www.w3.org/2000/svg">
<path opacity="0.49" fill-rule="evenodd" clip-rule="evenodd" d="M41.09 12.4961C34.8065 8.78464 28.9204 3.93114 34.1061 1.66239C38.6239 -0.31413 42.252 0.823498 45.3797 1.80423C48.2074 2.69089 50.6261 3.44931 52.9235 1.66239C56.7945 -1.34836 60.9881 0.407912 62.601 1.66239L55.3497 12.1364C72.2604 13.7274 85.1812 22.6986 85.1812 40.3721C85.1812 75.856 79.8049 79.6194 49.6974 79.6194C19.5898 79.6194 14.2135 75.856 14.2135 40.3721C14.2135 23.7433 25.652 14.8183 41.09 12.4961Z" fill="#8F85FF" fill-opacity="0.29"/>
<rect opacity="0.51" x="25.8281" y="37.4194" width="49.0323" height="16.7742" rx="2.58065" fill="#8F85FF" fill-opacity="0.29"/>
<path d="M54.2156 47.5978C54.2156 48.2732 53.9052 48.8538 53.2844 49.3397C52.6637 49.8174 51.7687 50.1139 50.5996 50.2292V51.6129H49.0477V50.2663C48.282 50.2334 47.5526 50.1263 46.8594 49.9451C46.1662 49.7639 45.6075 49.5415 45.1833 49.278L46.0369 47.7708C46.4301 48.0014 46.8905 48.1949 47.4181 48.3514C47.9458 48.5079 48.489 48.6067 49.0477 48.6479V46.5848C48.3131 46.4448 47.6923 46.2883 47.1853 46.1153C46.6784 45.9423 46.2542 45.6911 45.9128 45.3617C45.5713 45.024 45.4006 44.5793 45.4006 44.0275C45.4006 43.3439 45.711 42.7591 46.3318 42.2732C46.9629 41.779 47.8682 41.4784 49.0477 41.3713V40H50.5996V41.3466C51.8722 41.429 52.9223 41.6802 53.75 42.1002L52.9741 43.6198C52.1981 43.2656 51.4066 43.0515 50.5996 42.9774V45.0776C51.3238 45.2093 51.9343 45.3617 52.4309 45.5347C52.9378 45.6994 53.362 45.9506 53.7035 46.2883C54.0449 46.6177 54.2156 47.0542 54.2156 47.5978ZM47.8992 43.9286C47.8992 44.1345 47.9975 44.3034 48.1941 44.4351C48.3907 44.5669 48.6752 44.6781 49.0477 44.7687V43.0144C48.6545 43.0885 48.3648 43.208 48.1786 43.3727C47.9924 43.5292 47.8992 43.7145 47.8992 43.9286ZM50.5996 48.5985C50.9721 48.5326 51.2514 48.4255 51.4376 48.2773C51.6239 48.129 51.717 47.952 51.717 47.7461C51.717 47.5402 51.6187 47.3713 51.4221 47.2395C51.2359 47.1078 50.9617 46.9925 50.5996 46.8936V48.5985Z" fill="#8F85FF" fill-opacity="0.29"/>
<path d="M40.616 12.26C40.2608 12.2873 39.9949 12.5975 40.0223 12.9527C40.0496 13.308 40.3597 13.5738 40.715 13.5465L40.616 12.26ZM57.4892 12.2562C57.8445 12.2288 58.1103 11.9187 58.083 11.5634C58.0557 11.2082 57.7455 10.9423 57.3902 10.9697L57.4892 12.2562ZM40.715 13.5465L57.4892 12.2562L57.3902 10.9697L40.616 12.26L40.715 13.5465Z" fill="#5D589F"/>
<path d="M40.0541 10.9578C39.6983 10.939 39.3945 11.2121 39.3756 11.5679C39.3568 11.9237 39.6299 12.2275 39.9857 12.2464L40.0541 10.9578ZM56.7858 13.1379C57.1416 13.1568 57.4454 12.8837 57.4642 12.5278C57.4831 12.172 57.21 11.8683 56.8542 11.8494L56.7858 13.1379ZM39.9857 12.2464L56.7858 13.1379L56.8542 11.8494L40.0541 10.9578L39.9857 12.2464Z" fill="#5D589F"/>
<rect x="72.2784" y="74.8389" width="15.4839" height="3.87097" rx="1.93548" fill="#4A4679"/>
<rect x="72.2784" y="70.9677" width="15.4839" height="3.87097" rx="1.93548" fill="#4A4679"/>
<rect x="80.8881" y="65.8065" width="15.4839" height="3.87097" rx="1.93548" transform="rotate(12.947 80.8881 65.8065)" fill="#4A4679"/>
<circle cx="16.1504" cy="72.9033" r="7.09677" fill="#43406B"/>
<path d="M18.5148 73.9247C18.5148 74.31 18.3522 74.6411 18.027 74.9183C17.7018 75.1908 17.2331 75.3599 16.6207 75.4256V76.2148H15.8077V75.4468C15.4067 75.428 15.0246 75.3669 14.6615 75.2636C14.2984 75.1602 14.0058 75.0334 13.7836 74.8831L14.2307 74.0234C14.4366 74.1549 14.6778 74.2653 14.9542 74.3546C15.2306 74.4438 15.5151 74.5002 15.8077 74.5237V73.3469C15.423 73.2671 15.0978 73.1778 14.8322 73.0792C14.5667 72.9805 14.3445 72.8372 14.1656 72.6493C13.9868 72.4567 13.8974 72.2031 13.8974 71.8883C13.8974 71.4984 14.06 71.1649 14.3851 70.8877C14.7157 70.6059 15.1899 70.4344 15.8077 70.3733V69.5912H16.6207V70.3592C17.2872 70.4062 17.8373 70.5495 18.2709 70.7891L17.8644 71.6558C17.458 71.4538 17.0434 71.3317 16.6207 71.2894V72.4873C17 72.5624 17.3198 72.6493 17.5799 72.748C17.8454 72.8419 18.0676 72.9852 18.2465 73.1778C18.4253 73.3657 18.5148 73.6147 18.5148 73.9247ZM15.2062 71.832C15.2062 71.9494 15.2577 72.0457 15.3606 72.1209C15.4636 72.196 15.6126 72.2594 15.8077 72.3111V71.3105C15.6018 71.3528 15.4501 71.4209 15.3525 71.5149C15.255 71.6041 15.2062 71.7098 15.2062 71.832ZM16.6207 74.4955C16.8158 74.4579 16.9621 74.3969 17.0596 74.3123C17.1572 74.2277 17.206 74.1267 17.206 74.0093C17.206 73.8919 17.1545 73.7956 17.0515 73.7204C16.9539 73.6452 16.8103 73.5795 16.6207 73.5231V74.4955Z" fill="#8F85FF" fill-opacity="0.29"/>
<circle opacity="0.69" cx="3.89209" cy="76.1289" r="3.87097" fill="#43406B"/>
<path d="M5.18282 76.6863C5.18282 76.8964 5.09414 77.077 4.91677 77.2282C4.73941 77.3768 4.48371 77.4691 4.14967 77.5049V77.9354H3.70626V77.5165C3.48751 77.5062 3.27911 77.4729 3.08106 77.4165C2.883 77.3602 2.72337 77.291 2.60217 77.209L2.84605 76.7401C2.95838 76.8118 3.08992 76.872 3.24068 76.9207C3.39144 76.9694 3.54664 77.0002 3.70626 77.013V76.3711C3.49638 76.3275 3.31902 76.2789 3.17417 76.225C3.02932 76.1712 2.90813 76.0931 2.81058 75.9906C2.71303 75.8855 2.66425 75.7472 2.66425 75.5755C2.66425 75.3628 2.75293 75.1809 2.9303 75.0297C3.11062 74.876 3.36927 74.7825 3.70626 74.7491V74.3225H4.14967V74.7415C4.51327 74.7671 4.81331 74.8452 5.04979 74.9759L4.82809 75.4487C4.60638 75.3385 4.38025 75.2719 4.14967 75.2488V75.9022C4.3566 75.9432 4.53101 75.9906 4.6729 76.0444C4.81774 76.0957 4.93894 76.1738 5.03649 76.2789C5.13404 76.3814 5.18282 76.5172 5.18282 76.6863ZM3.37814 75.5447C3.37814 75.6088 3.40622 75.6613 3.46239 75.7023C3.51855 75.7433 3.59984 75.7779 3.70626 75.8061V75.2603C3.59393 75.2834 3.51116 75.3205 3.45795 75.3718C3.40474 75.4205 3.37814 75.4781 3.37814 75.5447ZM4.14967 76.9976C4.25609 76.9771 4.33591 76.9438 4.38911 76.8977C4.44232 76.8515 4.46893 76.7965 4.46893 76.7324C4.46893 76.6683 4.44085 76.6158 4.38468 76.5748C4.33147 76.5338 4.25314 76.4979 4.14967 76.4672V76.9976Z" fill="#8F85FF" fill-opacity="0.29"/>
</svg>
