<svg width="24" height="24" viewBox="0 0 24 24" fill="none" xmlns="http://www.w3.org/2000/svg">
<mask id="mask0_980_7836" style="mask-type:alpha" maskUnits="userSpaceOnUse" x="0" y="0" width="24" height="24">
<path fill-rule="evenodd" clip-rule="evenodd" d="M19.7782 4.22182C15.4648 -0.0915275 8.53518 -0.0915275 4.22183 4.22182C-0.091526 8.53518 -0.0915257 15.4648 4.22183 19.7782C8.53518 24.0915 15.4648 24.0915 19.7782 19.7782C24.0915 15.4648 24.0915 8.53518 19.7782 4.22182ZM5.63604 18.364C2.10051 14.8284 2.10051 9.17157 5.63604 5.63604C9.17157 2.1005 14.8284 2.1005 18.364 5.63604C21.8995 9.17157 21.8995 14.8284 18.364 18.364C14.8284 21.8995 9.17157 21.8995 5.63604 18.364ZM12.9899 12.9899H16.2426C16.8083 12.9899 17.2326 12.5657 17.2326 12C17.2326 11.4343 16.8083 11.01 16.2426 11.01H12.9899V7.75736C12.9899 7.19167 12.5657 6.76741 12 6.76741C11.4343 6.76741 11.0101 7.19167 11.0101 7.75736V11.01H7.75736C7.19167 11.01 6.76741 11.4343 6.76741 12C6.76741 12.2828 6.83812 12.495 7.05025 12.7071C7.26238 12.9192 7.47452 12.9899 7.75736 12.9899H11.0101V16.2426C11.0101 16.5255 11.0808 16.7376 11.2929 16.9497C11.505 17.1619 11.7172 17.2326 12 17.2326C12.5657 17.2326 12.9899 16.8083 12.9899 16.2426V12.9899Z" fill="white"/>
</mask>
<g mask="url(#mask0_980_7836)">
<rect width="24" height="24" fill="#5D5FEF"/>
</g>
</svg>
