<svg width="24" height="25" viewBox="0 0 24 25" fill="none" xmlns="http://www.w3.org/2000/svg">
<mask id="mask0_979_7004" style="mask-type:alpha" maskUnits="userSpaceOnUse" x="2" y="2" width="20" height="21">
<path fill-rule="evenodd" clip-rule="evenodd" d="M19 2.17065H5C3.3 2.17065 2 3.50875 2 5.25857V19.6688C2 21.4186 3.3 22.7567 5 22.7567H19C20.7 22.7567 22 21.4186 22 19.6688V5.25857C22 3.50875 20.7 2.17065 19 2.17065ZM20 19.6688C20 20.2864 19.6 20.6981 19 20.6981H5C4.4 20.6981 4 20.2864 4 19.6688V5.25856C4 4.64098 4.4 4.22926 5 4.22926H19C19.6 4.22926 20 4.64098 20 5.25856V19.6688ZM13.4 12.4637L15.7 10.0963C16.1 9.68458 16.1 9.067 15.7 8.65528C15.3 8.24356 14.7 8.24356 14.3 8.65528L12 11.0227L9.7 8.65528C9.3 8.24356 8.7 8.24356 8.3 8.65528C7.9 9.067 7.9 9.68458 8.3 10.0963L10.6 12.4637L8.3 14.8311C7.9 15.2428 7.9 15.8604 8.3 16.2721C8.5 16.478 8.7 16.5809 9 16.5809C9.3 16.5809 9.5 16.478 9.7 16.2721L12 13.9047L14.3 16.2721C14.5 16.478 14.7 16.5809 15 16.5809C15.3 16.5809 15.5 16.478 15.7 16.2721C16.1 15.8604 16.1 15.2428 15.7 14.8311L13.4 12.4637Z" fill="white"/>
</mask>
<g mask="url(#mask0_979_7004)">
<rect y="0.112061" width="24" height="24.7033" fill="#EB5757"/>
</g>
</svg>
