<svg width="100" height="80" viewBox="0 0 100 80" fill="none" xmlns="http://www.w3.org/2000/svg">
<circle cx="50" cy="40" r="14.5" stroke="#27296B" stroke-width="5"/>
<circle cx="50" cy="40" r="23.5" stroke="#27296B" stroke-width="5"/>
<rect x="47" y="10" width="6" height="17" fill="#27296B"/>
<rect x="47" y="52" width="6" height="18" fill="#27296B"/>
<rect x="79" y="37" width="6" height="17" transform="rotate(90 79 37)" fill="#27296B"/>
<rect x="37" y="37" width="6" height="17" transform="rotate(90 37 37)" fill="#27296B"/>
<circle cx="50" cy="40" r="5" fill="#27296B"/>
<circle cx="88.4419" cy="16.1451" r="6.91948" fill="#393B83"/>
<path d="M90.7477 17.1413C90.7477 17.5169 90.5892 17.8398 90.2722 18.11C89.9551 18.3757 89.498 18.5406 88.9009 18.6047V19.3742H88.1083V18.6253C87.7173 18.607 87.3448 18.5475 86.9908 18.4467C86.6367 18.3459 86.3514 18.2223 86.1347 18.0757L86.5707 17.2375C86.7715 17.3657 87.0066 17.4734 87.2761 17.5604C87.5456 17.6474 87.823 17.7024 88.1083 17.7253V16.5779C87.7332 16.5001 87.4161 16.4131 87.1572 16.3169C86.8983 16.2207 86.6816 16.081 86.5073 15.8978C86.3329 15.71 86.2457 15.4626 86.2457 15.1558C86.2457 14.7756 86.4042 14.4504 86.7213 14.1802C87.0436 13.9054 87.5059 13.7382 88.1083 13.6786V12.916H88.9009V13.6649C89.5509 13.7107 90.0872 13.8504 90.5099 14.084L90.1136 14.929C89.7173 14.7321 89.3131 14.613 88.9009 14.5718V15.7398C89.2708 15.813 89.5826 15.8978 89.8362 15.994C90.0951 16.0856 90.3118 16.2253 90.4862 16.4131C90.6605 16.5963 90.7477 16.839 90.7477 17.1413ZM87.5218 15.1008C87.5218 15.2153 87.572 15.3092 87.6724 15.3825C87.7728 15.4558 87.9181 15.5176 88.1083 15.568V14.5924C87.9075 14.6336 87.7596 14.7 87.6645 14.7916C87.5694 14.8787 87.5218 14.9817 87.5218 15.1008ZM88.9009 17.6978C89.0912 17.6612 89.2338 17.6016 89.329 17.5192C89.4241 17.4367 89.4716 17.3383 89.4716 17.2238C89.4716 17.1093 89.4214 17.0154 89.321 16.9421C89.2259 16.8688 89.0859 16.8047 88.9009 16.7497V17.6978Z" fill="#5456E7" fill-opacity="0.68"/>
<circle cx="25.0806" cy="56.0806" r="6.08057" fill="#393B83"/>
<path d="M27.1064 56.9557C27.1064 57.2857 26.9671 57.5695 26.6885 57.807C26.4099 58.0404 26.0083 58.1853 25.4836 58.2417V58.9179H24.7871V58.2598C24.4434 58.2437 24.1161 58.1914 23.805 58.1028C23.4939 58.0143 23.2431 57.9056 23.0527 57.7768L23.4358 57.0402C23.6123 57.1529 23.8189 57.2475 24.0557 57.324C24.2925 57.4005 24.5363 57.4488 24.7871 57.4689V56.4606C24.4574 56.3922 24.1788 56.3157 23.9512 56.2312C23.7237 56.1467 23.5333 56.0239 23.3801 55.8629C23.2269 55.6979 23.1502 55.4806 23.1502 55.2109C23.1502 54.8768 23.2895 54.591 23.5682 54.3536C23.8514 54.1121 24.2577 53.9652 24.7871 53.9128V53.2427H25.4836V53.9008C26.0547 53.941 26.526 54.0638 26.8975 54.269L26.5492 55.0116C26.201 54.8386 25.8458 54.7339 25.4836 54.6977V55.7241C25.8086 55.7885 26.0826 55.8629 26.3055 55.9474C26.533 56.0279 26.7234 56.1507 26.8766 56.3157C27.0298 56.4767 27.1064 56.6901 27.1064 56.9557ZM24.2716 55.1626C24.2716 55.2632 24.3157 55.3457 24.404 55.4101C24.4922 55.4745 24.6199 55.5289 24.7871 55.5731V54.7158C24.6106 54.752 24.4806 54.8104 24.397 54.8909C24.3134 54.9674 24.2716 55.0579 24.2716 55.1626ZM25.4836 57.4447C25.6507 57.4125 25.7761 57.3602 25.8597 57.2878C25.9433 57.2153 25.9851 57.1288 25.9851 57.0282C25.9851 56.9275 25.9409 56.845 25.8527 56.7806C25.7691 56.7162 25.6461 56.6599 25.4836 56.6116V57.4447Z" fill="#5456E7" fill-opacity="0.68"/>
<circle cx="11.5" cy="69.5" r="3.5" fill="#393B83"/>
<path d="M12.6661 70.0039C12.6661 70.1939 12.5859 70.3572 12.4255 70.4939C12.2652 70.6283 12.034 70.7117 11.732 70.7441V71.1334H11.331V70.7546C11.1333 70.7453 10.9448 70.7152 10.7658 70.6642C10.5867 70.6132 10.4423 70.5507 10.3328 70.4766L10.5533 70.0526C10.6548 70.1175 10.7738 70.1719 10.9101 70.2159C11.0464 70.2599 11.1867 70.2877 11.331 70.2993V69.719C11.1413 69.6796 10.9809 69.6356 10.8499 69.5869C10.719 69.5383 10.6094 69.4676 10.5212 69.3749C10.433 69.2799 10.3889 69.1548 10.3889 68.9996C10.3889 68.8073 10.4691 68.6428 10.6294 68.5061C10.7925 68.3671 11.0263 68.2826 11.331 68.2524V67.8667H11.732V68.2455C12.0607 68.2687 12.332 68.3393 12.5458 68.4575L12.3454 68.8849C12.1449 68.7853 11.9404 68.7251 11.732 68.7042V69.295C11.9191 69.3321 12.0767 69.3749 12.205 69.4236C12.336 69.4699 12.4456 69.5406 12.5338 69.6356C12.622 69.7282 12.6661 69.851 12.6661 70.0039ZM11.0344 68.9718C11.0344 69.0297 11.0598 69.0772 11.1105 69.1143C11.1613 69.1514 11.2348 69.1826 11.331 69.2081V68.7146C11.2295 68.7355 11.1546 68.7691 11.1065 68.8154C11.0584 68.8594 11.0344 68.9116 11.0344 68.9718ZM11.732 70.2854C11.8282 70.2669 11.9003 70.2368 11.9485 70.1951C11.9966 70.1534 12.0206 70.1036 12.0206 70.0456C12.0206 69.9877 11.9952 69.9402 11.9444 69.9032C11.8963 69.8661 11.8255 69.8336 11.732 69.8058V70.2854Z" fill="#5456E7" fill-opacity="0.68"/>
<circle cx="24" cy="9" r="4" fill="#393B83"/>
<path d="M25.3329 9.57585C25.3329 9.79297 25.2413 9.97964 25.058 10.1359C24.8747 10.2894 24.6105 10.3847 24.2653 10.4218V10.8666H23.8072V10.4337C23.5811 10.4231 23.3658 10.3887 23.1611 10.3305C22.9564 10.2722 22.7915 10.2007 22.6663 10.116L22.9183 9.63146C23.0343 9.70559 23.1703 9.76782 23.3261 9.81812C23.4818 9.86843 23.6422 9.9002 23.8072 9.91344V9.25018C23.5903 9.20517 23.407 9.15486 23.2573 9.09926C23.1076 9.04366 22.9824 8.9629 22.8816 8.85699C22.7808 8.74843 22.7304 8.60545 22.7304 8.42805C22.7304 8.20829 22.822 8.0203 23.0053 7.86408C23.1917 7.70522 23.4589 7.60857 23.8072 7.57415V7.1333H24.2653V7.56621C24.6411 7.59269 24.9511 7.67344 25.1955 7.80848L24.9664 8.29699C24.7373 8.18314 24.5036 8.11429 24.2653 8.09046V8.76564C24.4792 8.80801 24.6594 8.85699 24.806 8.91259C24.9557 8.96555 25.0809 9.0463 25.1817 9.15486C25.2825 9.26077 25.3329 9.4011 25.3329 9.57585ZM23.4681 8.39628C23.4681 8.46247 23.4971 8.51675 23.5551 8.55912C23.6132 8.60148 23.6972 8.63722 23.8072 8.66635V8.10238C23.6911 8.12621 23.6055 8.1646 23.5506 8.21756C23.4956 8.26786 23.4681 8.32744 23.4681 8.39628ZM24.2653 9.89756C24.3753 9.87637 24.4578 9.84195 24.5128 9.79429C24.5677 9.74663 24.5952 9.68971 24.5952 9.62351C24.5952 9.55732 24.5662 9.50304 24.5082 9.46068C24.4532 9.41831 24.3723 9.38124 24.2653 9.34947V9.89756Z" fill="#5456E7" fill-opacity="0.68"/>
<circle cx="90.7484" cy="56.8939" r="9.22597" fill="#393B83"/>
<path d="M93.8245 58.2216C93.8245 58.7224 93.6131 59.1529 93.1904 59.5133C92.7677 59.8675 92.1582 60.0873 91.3621 60.1728V61.1988H90.3053V60.2003C89.7839 60.1759 89.2872 60.0965 88.8152 59.9621C88.3431 59.8278 87.9627 59.6629 87.6738 59.4675L88.2551 58.3499C88.5228 58.5209 88.8363 58.6644 89.1956 58.7804C89.555 58.8965 89.9248 58.9697 90.3053 59.0003V57.4705C89.8051 57.3666 89.3823 57.2506 89.0371 57.1224C88.6919 56.9941 88.403 56.8078 88.1705 56.5636C87.938 56.3132 87.8218 55.9834 87.8218 55.5742C87.8218 55.0673 88.0331 54.6337 88.4559 54.2734C88.8856 53.907 89.5021 53.6841 90.3053 53.6047V52.5879H91.3621V53.5864C92.2287 53.6475 92.9438 53.8337 93.5074 54.1452L92.979 55.2719C92.4506 55.0093 91.9116 54.8505 91.3621 54.7956V56.3529C91.8553 56.4506 92.271 56.5636 92.6091 56.6918C92.9544 56.814 93.2432 57.0002 93.4757 57.2506C93.7082 57.4949 93.8245 57.8186 93.8245 58.2216ZM89.5233 55.5009C89.5233 55.6536 89.5902 55.7788 89.724 55.8765C89.8579 55.9742 90.0517 56.0567 90.3053 56.1239V54.8231C90.0376 54.878 89.8403 54.9666 89.7135 55.0887C89.5867 55.2048 89.5233 55.3422 89.5233 55.5009ZM91.3621 58.9636C91.6157 58.9148 91.806 58.8354 91.9328 58.7255C92.0596 58.6155 92.123 58.4842 92.123 58.3316C92.123 58.1789 92.0561 58.0537 91.9222 57.956C91.7954 57.8583 91.6087 57.7728 91.3621 57.6995V58.9636Z" fill="#5456E7" fill-opacity="0.68"/>
</svg>
