<svg width="56" height="56" viewBox="0 0 56 56" fill="none" xmlns="http://www.w3.org/2000/svg">
<circle opacity="0.15" cx="28" cy="28" r="28" fill="#28C76F"/>
<path d="M56 28C56 43.464 43.464 56 28 56C12.536 56 0 43.464 0 28C0 12.536 12.536 0 28 0C43.464 0 56 12.536 56 28ZM7 28C7 39.598 16.402 49 28 49C39.598 49 49 39.598 49 28C49 16.402 39.598 7 28 7C16.402 7 7 16.402 7 28Z" fill="#28C76F"/>
<mask id="mask0_5_3154" style="mask-type:alpha" maskUnits="userSpaceOnUse" x="19" y="16" width="17" height="25">
<path fill-rule="evenodd" clip-rule="evenodd" d="M35.8333 24.316C35.8333 19.7422 32.0833 16 27.5 16C22.9167 16 19.1667 19.7422 19.1667 24.316C19.1667 27.0187 20.4167 29.4096 22.3958 30.8649L21.25 39.8046C21.1458 40.2204 21.3542 40.6362 21.6667 40.8441C21.9792 41.052 22.3958 41.052 22.8125 40.8441L27.5 38.0374L32.1875 40.8441C32.2917 40.948 32.5 40.948 32.7083 40.948C32.9167 40.948 33.125 40.8441 33.2292 40.7401C33.5417 40.5322 33.75 40.1164 33.6458 39.7006L32.5 30.8649C34.5833 29.4096 35.8333 27.0187 35.8333 24.316ZM21.25 24.316C21.25 20.8857 24.0625 18.079 27.5 18.079C30.9375 18.079 33.75 20.8857 33.75 24.316C33.75 27.7464 30.9375 30.553 27.5 30.553C24.0625 30.553 21.25 27.7464 21.25 24.316ZM28.0208 35.9584L31.3542 37.9335L30.625 32.0083C29.6875 32.4241 28.6458 32.632 27.5 32.632C26.3542 32.632 25.3125 32.4241 24.375 32.0083L23.6458 37.9335L26.9792 35.9584C27.2917 35.7505 27.7083 35.7505 28.0208 35.9584Z" fill="white"/>
</mask>
<g mask="url(#mask0_5_3154)">
<rect x="15" y="16" width="25" height="25" fill="#28C76F"/>
</g>
</svg>
